<?xml version="1.0" standalone="no"?>
<!DOCTYPE svg PUBLIC "-//W3C//DTD SVG 20010904//EN"
 "http://www.w3.org/TR/2001/REC-SVG-20010904/DTD/svg10.dtd">
<svg version="1.0" xmlns="http://www.w3.org/2000/svg"
 width="1920.000000pt" height="1920.000000pt" viewBox="0 0 1920.000000 1920.000000"
 preserveAspectRatio="xMidYMid meet">
<metadata>
Created by potrace 1.14, written by Peter Selinger 2001-2017
</metadata>
<g transform="translate(0.000000,1920.000000) scale(0.100000,-0.100000)"
fill="#000000" stroke="none">
<path d="M9437 14674 c-1 -1 -69 -4 -152 -8 -82 -3 -166 -8 -185 -10 -19 -2
-64 -7 -100 -11 -126 -13 -190 -21 -295 -40 -16 -3 -45 -8 -64 -11 -29 -4
-290 -59 -331 -69 -155 -40 -545 -164 -575 -183 -5 -4 -12 -7 -15 -8 -3 0 -14
-4 -25 -9 -31 -13 -137 -56 -172 -71 -18 -8 -35 -14 -38 -14 -3 0 -73 -35
-157 -77 -168 -83 -373 -199 -486 -275 -40 -26 -75 -48 -78 -48 -3 0 -12 -6
-19 -12 -27 -24 -40 -34 -55 -41 -22 -10 -53 -31 -65 -43 -5 -6 -62 -49 -125
-96 -63 -48 -124 -95 -135 -105 -11 -10 -65 -57 -120 -104 -216 -186 -438
-421 -659 -699 -56 -70 -226 -313 -261 -372 -5 -9 -29 -48 -52 -87 -24 -38
-43 -74 -43 -79 0 -6 -4 -12 -8 -14 -8 -3 -25 -33 -127 -222 -37 -71 -86 -177
-175 -381 -7 -16 -14 -34 -16 -40 -1 -5 -9 -27 -18 -47 -9 -21 -16 -40 -16
-43 0 -3 -7 -19 -15 -35 -9 -17 -13 -30 -9 -30 4 0 2 -6 -3 -12 -8 -10 -46
-120 -58 -168 -1 -3 -5 -12 -8 -20 -6 -14 -53 -177 -62 -216 -3 -10 -16 -64
-30 -119 -28 -110 -29 -114 -51 -235 -22 -121 -33 -188 -40 -240 -3 -25 -7
-47 -9 -50 -2 -3 -6 -45 -10 -95 -4 -49 -8 -101 -11 -115 -16 -97 -22 -510
-11 -715 10 -169 32 -384 52 -495 2 -14 11 -65 20 -115 13 -76 26 -139 60
-293 3 -13 13 -49 21 -80 18 -68 23 -85 29 -113 2 -12 11 -40 19 -63 8 -22 24
-72 36 -111 12 -38 30 -92 40 -120 11 -27 32 -86 49 -130 42 -115 131 -322
165 -385 7 -14 48 -92 90 -175 43 -82 81 -152 85 -155 4 -3 10 -12 14 -20 4
-8 20 -37 37 -65 17 -27 33 -58 37 -67 3 -10 9 -18 14 -18 5 0 9 -6 9 -14 0
-8 4 -16 9 -18 5 -1 17 -17 27 -35 54 -91 301 -423 315 -423 5 0 9 -5 9 -11 0
-6 6 -16 13 -23 6 -7 37 -42 67 -77 194 -226 510 -523 720 -679 18 -14 65 -49
103 -78 38 -29 80 -58 93 -64 13 -6 24 -14 24 -18 0 -4 11 -12 25 -18 14 -7
31 -17 38 -23 31 -27 198 -129 357 -218 171 -96 509 -249 690 -312 172 -61
411 -135 465 -144 11 -2 57 -13 102 -24 45 -11 94 -23 110 -26 15 -2 53 -9 83
-15 30 -6 66 -12 80 -15 22 -5 153 -24 265 -39 22 -3 74 -9 115 -12 41 -3 113
-10 160 -14 91 -8 602 -5 685 4 28 3 73 8 100 11 127 12 152 15 185 20 19 3
46 7 60 10 14 3 41 7 60 10 54 8 142 23 170 29 14 3 50 11 80 17 30 6 100 22
155 36 55 14 107 26 115 28 56 13 323 99 380 123 8 3 20 7 25 7 10 2 18 5 98
38 20 9 38 16 40 15 2 -1 38 14 155 68 40 19 78 34 85 34 7 0 23 9 37 20 14
11 30 20 35 20 14 0 148 70 261 135 53 30 97 55 99 55 22 0 460 300 526 360 9
8 31 26 49 40 19 14 38 30 44 35 6 6 22 18 35 27 87 61 461 429 581 573 41 50
81 97 89 105 8 8 55 69 104 135 49 66 93 122 98 123 5 2 9 7 9 12 0 4 40 68
88 141 98 149 212 340 212 357 0 6 4 12 8 14 8 3 162 309 162 321 0 4 12 32
26 64 41 89 123 292 129 318 1 6 5 18 9 27 4 9 9 22 10 30 2 7 6 20 9 28 13
33 104 348 107 372 1 4 6 22 11 40 5 18 12 47 15 63 9 45 12 60 14 60 1 0 4
11 6 25 2 14 6 36 8 50 3 14 8 39 11 55 7 40 18 99 20 105 6 26 21 129 30 220
4 36 9 79 11 95 32 287 32 770 -2 1030 -2 17 -6 55 -9 85 -6 55 -12 94 -20
140 -2 14 -7 41 -9 60 -3 19 -8 45 -10 56 -2 12 -7 39 -10 60 -9 56 -55 260
-72 320 -8 28 -16 60 -19 70 -9 44 -47 172 -60 207 -8 20 -15 38 -14 40 1 5
-13 43 -22 59 -5 10 -9 24 -9 31 0 16 -117 311 -163 412 -67 148 -202 407
-256 490 -14 22 -24 43 -23 48 1 4 -3 7 -8 7 -6 0 -10 5 -10 10 0 13 -160 254
-172 258 -4 2 -8 9 -8 16 0 7 -8 21 -17 32 -10 10 -35 42 -55 69 -21 28 -41
55 -45 60 -78 100 -120 152 -128 161 -5 6 -37 42 -70 80 -144 164 -352 372
-489 487 -154 130 -150 127 -271 218 -85 65 -268 191 -323 224 -9 6 -72 43
-139 83 -303 179 -658 338 -1017 453 -50 16 -100 31 -111 34 -11 2 -69 18
-130 35 -92 25 -223 54 -390 85 -16 3 -39 8 -50 10 -17 3 -106 17 -195 30 -14
3 -56 7 -95 10 -38 3 -86 8 -105 10 -53 7 -478 23 -483 19z"/>
</g>
</svg>
